HIERARCHY
ROOT Hips
{
	OFFSET 0.000000 0.000000 0.000000
	CHANNELS 6 Xposition Yposition Zposition Zrotation Yrotation Xrotation 
	JOINT LHipJoint
	{
		OFFSET 0.000000 0.000000 0.000000
		CHANNELS 3 Zrotation Yrotation Xrotation
		JOINT LeftUpLeg
		{
			OFFSET 1.363060 -1.794630 0.839290
			CHANNELS 3 Zrotation Yrotation Xrotation
			JOINT LeftLeg
			{
				OFFSET 2.448110 -6.726130 0.000000
				CHANNELS 3 Zrotation Yrotation Xrotation
				JOINT LeftFoot
				{
					OFFSET 2.562200 -7.039590 0.000000
					CHANNELS 3 Zrotation Yrotation Xrotation
					JOINT LeftToeBase
					{
						OFFSET 0.157640 -0.433110 2.322550
						CHANNELS 3 Zrotation Yrotation Xrotation
						End Site
						{
							OFFSET 0.000000 0.000000 0.000000
						}
					}
				}
			}
		}
	}
	JOINT RHipJoint
	{
		OFFSET 0.000000 0.000000 0.000000
		CHANNELS 3 Zrotation Yrotation Xrotation
		JOINT RightUpLeg
		{
			OFFSET -1.305520 -1.794630 0.839290
			CHANNELS 3 Zrotation Yrotation Xrotation
			JOINT RightLeg
			{
				OFFSET -2.542530 -6.985550 0.000000
				CHANNELS 3 Zrotation Yrotation Xrotation
				JOINT RightFoot
				{
					OFFSET -2.568260 -7.056230 0.000000
					CHANNELS 3 Zrotation Yrotation Xrotation
					JOINT RightToeBase
					{
						OFFSET -0.164730 -0.452590 2.363150
						CHANNELS 3 Zrotation Yrotation Xrotation
						End Site
						{
							OFFSET 0.000000 0.000000 0.000000
						}
					}
				}
			}
		}
	}
	JOINT LowerBack
	{
		OFFSET 0.000000 0.000000 0.000000
		CHANNELS 3 Zrotation Yrotation Xrotation
		JOINT Spine
		{
			OFFSET 0.028270 2.035590 -0.193380
			CHANNELS 3 Zrotation Yrotation Xrotation
			JOINT Spine1
			{
				OFFSET 0.056720 2.048850 -0.042750
				CHANNELS 3 Zrotation Yrotation Xrotation
				JOINT Neck
				{
					OFFSET 0.000000 0.000000 0.000000
					CHANNELS 3 Zrotation Yrotation Xrotation
					JOINT Neck1
					{
						OFFSET -0.054170 1.746240 0.172020
						CHANNELS 3 Zrotation Yrotation Xrotation
						JOINT Head
						{
							OFFSET 0.104070 1.761360 -0.123970
							CHANNELS 3 Zrotation Yrotation Xrotation
							End Site
							{
								OFFSET 0.000000 0.000000 0.000000
							}
						}
					}
				}
				JOINT LeftShoulder
				{
					OFFSET 0.000000 0.000000 0.000000
					CHANNELS 3 Zrotation Yrotation Xrotation
					JOINT LeftArm
					{
						OFFSET 3.362410 1.200890 -0.311210
						CHANNELS 3 Zrotation Yrotation Xrotation
						JOINT LeftForeArm
						{
							OFFSET 4.983000 -0.000000 -0.000000
							CHANNELS 3 Zrotation Yrotation Xrotation
							JOINT LeftHand
							{
								OFFSET 3.483560 -0.000000 -0.000000
								CHANNELS 3 Zrotation Yrotation Xrotation
								JOINT LeftFingerBase
								{
									OFFSET 0.000000 0.000000 0.000000
									CHANNELS 3 Zrotation Yrotation Xrotation
									JOINT LeftHandIndex1
									{
										OFFSET 0.715260 -0.000000 -0.000000
										CHANNELS 3 Zrotation Yrotation Xrotation
										End Site
										{
											OFFSET 0.000000 0.000000 0.000000
										}
									}
								}
								JOINT LThumb
								{
									OFFSET 0.000000 0.000000 0.000000
									CHANNELS 3 Zrotation Yrotation Xrotation
									End Site
									{
										OFFSET 0.000000 0.000000 0.000000
									}
								}
							}
						}
					}
				}
				JOINT RightShoulder
				{
					OFFSET 0.000000 0.000000 0.000000
					CHANNELS 3 Zrotation Yrotation Xrotation
					JOINT RightArm
					{
						OFFSET -3.136600 1.374050 -0.404650
						CHANNELS 3 Zrotation Yrotation Xrotation
						JOINT RightForeArm
						{
							OFFSET -5.241900 -0.000000 -0.000000
							CHANNELS 3 Zrotation Yrotation Xrotation
							JOINT RightHand
							{
								OFFSET -3.444170 -0.000000 -0.000000
								CHANNELS 3 Zrotation Yrotation Xrotation
								JOINT RightFingerBase
								{
									OFFSET 0.000000 0.000000 0.000000
									CHANNELS 3 Zrotation Yrotation Xrotation
									JOINT RightHandIndex1
									{
										OFFSET -0.622530 -0.000000 -0.000000
										CHANNELS 3 Zrotation Yrotation Xrotation
										End Site
										{
											OFFSET 0.000000 0.000000 0.000000
										}
									}
								}
								JOINT RThumb
								{
									OFFSET 0.000000 0.000000 0.000000
									CHANNELS 3 Zrotation Yrotation Xrotation
									End Site
									{
										OFFSET 0.000000 0.000000 0.000000
									}
								}
							}
						}
					}
				}
			}
		}
	}
}
MOTION
Frames: 4
Frame Time: 0.008333
13.105579 16.659160 17.987204 176.636015 4.999930 -152.901616 28.293946 9.162274 5.982182 -41.472853 -38.932503 -33.206693 6.711959 10.629303 28.006410 2.691954 -6.679811 -44.799674 5.655000 -14.085500 -43.581000 -29.596586 -11.104292 5.886079 27.585068 44.061020 -45.230160 -13.086709 -22.285761 74.938843 -8.141965 0.955304 -65.807905 -4.339400 12.598800 -37.884600 -2.833679 0.135049 -29.286216 -8.317528 -0.990206 12.185412 2.364380 -1.331661 11.720050 -9.412295 -3.065080 -5.226149 8.893423 -4.205223 47.026098 1.463600 1.429200 7.409200 19.762075 -2.171583 1.854195 -108.393025 1.351383 16.132518 25.919127 -26.665278 -4.620588 0.703473 0.036992 -3.773504 22.291288 -11.460494 -4.514400 -7.125000 0.000000 0.000000 -3.891400 17.643800 2.534700 -10.554274 3.348336 1.291628 96.416885 0.887988 11.921539 -33.729432 42.381957 -9.267087 0.035661 -3.925183 -7.255559 -12.890311 -55.792880 9.876800 7.125000 0.000000 0.000000 62.495800 -75.551600 -48.617900 
13.046589 16.594137 17.962402 176.767390 5.029842 -152.840371 28.081982 9.164926 6.029871 -41.060538 -39.281781 -33.730546 6.648185 10.870983 28.862028 2.655881 -7.095734 -45.824578 5.669300 -14.100000 -43.639700 -29.364230 -11.104717 5.876414 27.052882 43.977996 -45.734189 -13.390551 -22.418899 75.793548 -8.154679 0.538104 -65.684672 -4.469400 12.760200 -38.477200 -3.125901 -0.080325 -28.953630 -8.086703 -1.172942 12.269997 2.476491 -1.416097 11.433663 -9.452693 -3.004201 -5.244990 8.832603 -4.126042 46.895985 1.468700 1.431700 7.365700 19.711654 -2.163348 1.835928 -108.305368 1.217699 16.354974 25.875512 -26.603427 -4.600575 0.708826 0.052477 -4.027742 22.330618 -10.905091 -4.311400 -7.125000 0.000000 0.000000 -3.850900 18.221900 2.459200 -10.539490 3.315126 1.289268 96.366141 0.700222 12.114234 -34.096857 42.718542 -9.482957 0.026182 -3.900874 -7.412873 -13.298064 -55.642161 10.173300 7.125000 0.000000 0.000000 61.836100 -75.657500 -48.142900 
12.985587 16.542329 17.937599 176.861124 4.924274 -153.031236 27.852645 9.060052 6.114058 -40.755712 -39.652339 -33.994750 6.588581 11.051975 29.555895 2.592816 -7.528776 -46.616966 5.613000 -14.042500 -43.408100 -29.281639 -11.065315 5.929125 26.837754 43.836521 -45.768856 -13.544652 -22.519412 76.817983 -8.073628 1.852948 -65.713039 -4.111200 12.307000 -36.826700 -2.735117 -0.018169 -29.095384 -8.967344 -1.235690 13.373587 2.516523 -1.499471 11.283070 -8.965168 -2.935311 -5.380452 8.483409 -3.899537 46.431600 1.369500 1.469200 7.334800 19.957751 -1.997576 1.752053 -108.063255 0.671382 16.305908 25.730107 -26.528733 -4.524659 0.725062 0.068821 -4.086613 22.541057 -10.457818 -4.184900 -7.125000 0.000000 0.000000 -3.701800 18.666800 2.327100 -10.603494 3.238942 1.212750 96.749444 0.975690 12.256125 -34.206425 42.996564 -9.612174 0.012011 -3.861975 -7.225307 -13.227000 -54.947537 10.028700 7.125000 0.000000 0.000000 59.486700 -75.373000 -45.775600 
12.927172 16.497416 17.911934 177.117295 4.719342 -153.265229 27.746967 8.999924 6.281983 -40.404301 -40.041021 -34.276763 6.540230 11.243271 30.237091 2.567361 -7.813973 -47.168845 5.582600 -14.011300 -43.282600 -29.079359 -10.963321 6.023957 26.718843 43.698567 -45.779323 -13.808825 -22.651849 77.809852 -8.044062 2.225505 -65.653594 -4.092700 12.282700 -36.739500 -2.793440 -0.237600 -29.659554 -8.570079 -1.368044 15.045814 2.232647 -1.585005 11.394086 -9.074466 -2.714968 -5.176297 8.782397 -3.782133 44.700763 1.385700 1.444300 7.120200 20.106466 -1.903449 1.568916 -107.991071 -0.198726 16.018303 25.484774 -26.412673 -4.412925 0.734009 0.068600 -3.758701 22.688857 -10.291016 -4.150000 -7.125000 0.000000 0.000000 -3.598700 18.829800 2.249000 -10.829279 3.025723 1.037372 97.064649 1.609938 12.246082 -34.141284 43.120354 -9.632130 -0.025138 -3.817418 -6.997658 -13.460694 -53.573319 10.012100 7.125000 0.000000 0.000000 54.778600 -74.857800 -41.202600 
